<?xml version="1.0" encoding="utf-8"?>
<svg version="1.1" stroke="#FFF" stroke-width="0.1" fill="transparent" xmlns="http://www.w3.org/2000/svg" xmlns:xlink="http://www.w3.org/1999/xlink" viewBox="0 0 87 18">
	<g class="letters">
		<path d="M25.656,15.506L17.464,1.723c-0.117-0.197-0.281-0.361-0.478-0.478c-0.65-0.386-1.49-0.172-1.876,0.478
		L12.925,5.4L10.74,1.723c-0.117-0.196-0.281-0.36-0.477-0.477c-0.65-0.387-1.491-0.173-1.878,0.477L0.194,15.506
		c-0.126,0.212-0.192,0.454-0.192,0.701c0.002,0.754,0.614,1.365,1.369,1.363h18.786l-6.63-11.16L16,2.25
		c0.028-0.047,0.068-0.087,0.116-0.116c0.159-0.095,0.365-0.043,0.459,0.116l8.19,13.787c0.029,0.05,0.045,0.108,0.045,0.166
		c0.001,0.184-0.148,0.333-0.332,0.334h-4.934l0.613,1.033h4.321c0.246,0,0.487-0.066,0.699-0.191
		C25.827,16.994,26.041,16.155,25.656,15.506z M1.371,16.533c-0.058,0-0.115-0.016-0.166-0.045c-0.159-0.092-0.213-0.296-0.121-0.455
		L9.275,2.25c0.028-0.047,0.068-0.087,0.116-0.116C9.549,2.039,9.755,2.091,9.85,2.25l2.473,4.162L12.36,6.35L6.306,16.537
		L1.371,16.533z M7.506,16.537l5.419-9.113l5.415,9.113H7.506z" />
		<path d="M41.724,2.82l0.007-0.007L41.554,2.64c-1.46-1.465-3.381-2.38-5.439-2.588H36.1
		c-0.131-0.012-0.261-0.022-0.393-0.029L35.64,0.018c-0.152-0.008-0.305-0.012-0.459-0.012c-4.972,0.002-9.003,4.028-9.012,9
		c0,0.163,0.005,0.325,0.014,0.485c0.003,0.055,0.012,0.108,0.012,0.162c0.008,0.106,0.015,0.216,0.027,0.316
		c0.007,0.064,0.017,0.132,0.025,0.2c0.012,0.088,0.024,0.187,0.037,0.264c0.013,0.077,0.028,0.156,0.042,0.231
		c0.014,0.075,0.026,0.139,0.044,0.225s0.039,0.172,0.06,0.257c0.015,0.061,0.03,0.122,0.046,0.182
		c0.026,0.097,0.053,0.189,0.083,0.289c0.013,0.043,0.027,0.086,0.04,0.129c0.036,0.111,0.072,0.22,0.112,0.329l0.021,0.055
		c0.556,1.501,1.503,2.826,2.743,3.838l0.194,0.159l0.006-0.007c3.507,2.715,8.47,2.47,11.693-0.577
		C44.98,12.128,45.139,6.432,41.724,2.82z M29.587,14.649c-0.521-0.515-0.968-1.099-1.33-1.736c-0.026-0.046-0.054-0.092-0.079-0.139
		l-0.02-0.039c-0.549-1.03-0.865-2.169-0.926-3.335c-0.01-0.133-0.01-0.266-0.01-0.4c0.008-4.39,3.569-7.946,7.959-7.948
		c0.128,0,0.254,0.003,0.38,0.013l0.132,0.009c0.081,0.005,0.163,0.011,0.245,0.019c0.053,0.004,0.102,0.01,0.153,0.016l0.221,0.028
		l0.156,0.024c0.074,0.012,0.148,0.025,0.222,0.039l0.144,0.025c0.085,0.018,0.17,0.038,0.255,0.059l0.1,0.024
		c1.123,0.294,2.169,0.83,3.063,1.57L29.587,14.649z M30.383,15.337L41.016,3.6c1.367,1.466,2.126,3.396,2.124,5.4
		c-0.002,1.731-0.567,3.414-1.612,4.794C38.877,17.298,33.887,17.989,30.383,15.337z" />
		<path d="M63.248,0.385V0.383H48.89c-0.32,0.001-0.631,0.106-0.885,0.3c-0.043,0.023-0.083,0.052-0.118,0.086
		c-0.016,0.017-0.031,0.036-0.045,0.055C47.57,1.1,47.418,1.472,47.419,1.86v14.341c0,0.321,0.105,0.633,0.3,0.888
		c0.05,0.19,0.206,0.333,0.4,0.366c0.231,0.144,0.498,0.22,0.771,0.22h14.357c0.389,0.001,0.763-0.153,1.039-0.428
		c0.011-0.011,0.021-0.023,0.032-0.035l0.015-0.013c0.012-0.012,0.021-0.026,0.032-0.039c0.232-0.266,0.359-0.607,0.359-0.96V1.86
		C64.722,1.046,64.062,0.386,63.248,0.385z M63.024,1.419l-6.878,6.868l-6.877-6.868H63.024z M48.446,15.973V2.061l6.965,6.957
		L48.446,15.973z M49.246,16.637l6.9-6.889l6.9,6.889H49.246z M63.687,15.818l-6.81-6.8l6.81-6.801V15.818z" />
		<path d="M86.814,0.979c-0.247-0.437-0.712-0.706-1.214-0.703H68.759c-0.251,0.001-0.497,0.069-0.713,0.197
		c-0.664,0.395-0.883,1.255-0.487,1.919l5.251,8.4l-3.351,5.9c-0.148,0.247-0.135,0.558,0.034,0.791
		c0.152,0.196,0.389,0.308,0.637,0.3h7.053c0.04-0.052,0.073-0.108,0.1-0.167L86.8,2.385C87.061,1.954,87.066,1.415,86.814,0.979z
		M76.339,16.75h-5.654c-0.007,0-0.013-0.002-0.019-0.005c-0.02-0.011-0.027-0.036-0.016-0.056l2.692-4.74
		c0.003-0.005,0.008-0.01,0.013-0.013c0.02-0.012,0.046-0.007,0.058,0.013l2.961,4.738c0.004,0.007,0.006,0.014,0.006,0.022
		C76.38,16.732,76.362,16.75,76.339,16.75z M85.921,1.842l-8.742,13.99L68.445,1.857c-0.033-0.056-0.051-0.121-0.051-0.186
		c0-0.202,0.163-0.365,0.365-0.365h16.839c0.132-0.002,0.254,0.069,0.317,0.184C85.981,1.597,85.984,1.732,85.921,1.842z" />
	</g>
</svg>
