<svg version="1.1" id="Layer_1" xmlns="http://www.w3.org/2000/svg" x="0" y="0" viewBox="0 0 231 63" xml:space="preserve">
  <style>
    .st0{fill:#fff}.st1{fill:#f7a515}
  </style>
  <path class="st0" d="M163.6 29.8c0-.1-.1-.1-.1-.2v-8c0-.1 0-.2.1-.2 0-.1.1-.1.2-.1h3.1c.9 0 1.7.2 2.2.7.5.4.8 1.1.8 1.9s-.3 1.5-.8 1.9c-.5.4-1.3.7-2.2.7h-2.2v3.1c0 .1 0 .1-.1.2s-.1.1-.2.1h-.6c-.1 0-.2-.1-.2-.1zm3.2-4.3c1.2 0 1.9-.5 1.9-1.6 0-.5-.2-.9-.5-1.2-.3-.3-.8-.4-1.4-.4h-2.1v3.2h2.1zM171.6 29.2c-.5-.5-.7-1.2-.8-2v-1c0-.8.3-1.5.8-2s1.2-.8 2.1-.8c.9 0 1.6.3 2.1.8s.8 1.2.8 2v1c0 .8-.3 1.5-.8 2s-1.2.8-2.1.8c-.9 0-1.6-.3-2.1-.8zm3.4-.6c.3-.3.5-.8.5-1.4v-.5-.5c0-.6-.2-1.1-.5-1.4-.3-.3-.7-.5-1.2-.5s-.9.2-1.2.5c-.3.3-.5.8-.5 1.4v1c0 .6.2 1.1.5 1.4.3.3.7.5 1.2.5s.9-.2 1.2-.5zM178.2 29.8c-.1-.1-.1-.1-.1-.2v-5.8c0-.1 0-.2.1-.2.1-.1.1-.1.2-.1h.5c.1 0 .2 0 .2.1.1.1.1.1.1.2v.5c.3-.6.9-.8 1.7-.8h.5c.1 0 .2 0 .2.1 0 0 .1.1.1.2v.5c0 .1 0 .1-.1.2 0 .1-.1.1-.2.1h-.7c-.5 0-.8.1-1.1.4-.3.3-.4.6-.4 1.1v3.6c0 .1 0 .1-.1.2s-.1.1-.2.1h-.6c.1-.1 0-.2-.1-.2zM183.3 27.7v-3.3h-1c-.1 0-.1 0-.2-.1 0 0-.1-.1-.1-.2v-.4c0-.1 0-.1.1-.2 0-.1.1-.1.2-.1h1v-2.1c0-.1 0-.1.1-.2 0-.1.1-.1.2-.1h.5c.1 0 .1 0 .2.1s.1.1.1.2v2.1h1.5c.1 0 .1 0 .2.1s.1.1.1.2v.4c0 .1 0 .1-.1.2-.1 0-.1.1-.2.1h-1.5v3.2c0 .4.1.7.2.9.1.2.4.3.7.3h.7c.1 0 .1 0 .2.1 0 .1.1.1.1.2v.4c0 .1 0 .1-.1.2 0 .1-.1.1-.2.1h-.8c-1.2.1-1.9-.7-1.9-2.1zM188.1 29.2c-.5-.5-.7-1.2-.8-2v-1c0-.8.3-1.5.8-2s1.2-.8 2.1-.8c.9 0 1.6.3 2.1.8s.8 1.2.8 2v1c0 .8-.3 1.5-.8 2s-1.2.8-2.1.8c-1 0-1.7-.3-2.1-.8zm3.3-.6c.3-.3.5-.8.5-1.4v-.5-.5c0-.6-.2-1.1-.5-1.4-.3-.3-.7-.5-1.2-.5s-.9.2-1.2.5c-.3.3-.5.8-.5 1.4v1c0 .6.2 1.1.5 1.4.3.3.7.5 1.2.5s.9-.2 1.2-.5zM164.5 44.1c-.5-.2-.9-.5-1.2-.9-.3-.4-.5-.9-.5-1.5 0-.1 0-.1.1-.2 0-.1.1-.1.2-.1h1.2c.2 0 .3.1.4.3.1.4.2.7.5.9.3.2.6.3 1.1.3.5 0 .9-.2 1.2-.5.3-.3.4-.8.4-1.4v-3.9h-4.2c-.1 0-.2 0-.2-.1-.1-.1-.1-.1-.1-.2V36c0-.1 0-.2.1-.2.1-.1.1-.1.2-.1h5.6c.1 0 .2 0 .2.1.1.1.1.1.1.2v5.1c0 .7-.1 1.3-.4 1.8-.3.5-.7.9-1.2 1.1-.5.3-1.1.4-1.8.4-.6 0-1.2-.1-1.7-.3zM171.9 44.2c-.3-.2-.6-.4-.8-.7-.2-.3-.3-.6-.3-.9 0-.6.2-1 .7-1.4.5-.3 1.1-.6 1.9-.7l1.7-.2V40c0-.4-.1-.6-.3-.8-.2-.2-.5-.3-.9-.3-.3 0-.5 0-.7.1-.2.1-.3.2-.4.3l-.2.2c0 .1-.1.1-.2.1h-1c-.1 0-.1 0-.2-.1-.1 0-.1-.1-.1-.2 0-.2.1-.4.3-.7.2-.3.5-.5.9-.7.4-.2.9-.3 1.5-.3 1 0 1.7.2 2.1.7.4.4.7 1 .7 1.7v4c0 .1 0 .2-.1.2-.1.1-.1.1-.2.1h-1c-.1 0-.2 0-.2-.1-.1-.1-.1-.1-.1-.2v-.5c-.2.3-.4.5-.8.6-.3.2-.7.3-1.2.3-.3 0-.7 0-1.1-.2zm2.7-1.4c.3-.3.4-.7.4-1.3v-.2l-1.2.2c-.9.1-1.4.5-1.4.9 0 .3.1.5.3.6.2.1.5.2.8.2.4.1.8-.1 1.1-.4zM180.1 44.2l-.2-.2-2.3-5.7v-.1c0-.1 0-.1.1-.2s.1-.1.2-.1h1c.2 0 .3.1.3.2l1.6 4.3 1.6-4.3c0-.1.1-.1.1-.2.1 0 .1-.1.2-.1h1c.1 0 .1 0 .2.1 0 .1.1.1.1.2v.1l-2.3 5.7c-.1.2-.2.3-.4.3h-.9c-.2.1-.3.1-.3 0zM185.6 44.2c-.3-.2-.6-.4-.8-.7-.2-.3-.3-.6-.3-.9 0-.6.2-1 .7-1.4.5-.3 1.1-.6 1.9-.7l1.7-.2V40c0-.4-.1-.6-.3-.8-.2-.2-.5-.3-.9-.3-.3 0-.5 0-.7.1-.2.1-.3.2-.4.3l-.2.2c0 .1-.1.1-.2.1h-1c-.1 0-.1 0-.2-.1-.1 0-.1-.1-.1-.2 0-.2.1-.4.3-.7.2-.3.5-.5.9-.7.4-.2.9-.3 1.5-.3 1 0 1.7.2 2.1.7.4.4.7 1 .7 1.7v4c0 .1 0 .2-.1.2-.1.1-.1.1-.2.1h-1c-.1 0-.2 0-.2-.1-.1-.1-.1-.1-.1-.2v-.5c-.2.3-.4.5-.8.6-.3.2-.7.3-1.2.3-.4 0-.8 0-1.1-.2zm2.7-1.4c.3-.3.4-.7.4-1.3v-.2l-1.2.2c-.9.1-1.4.5-1.4.9 0 .3.1.5.3.6.2.1.5.2.8.2.4.1.8-.1 1.1-.4zM193.2 44.1c-.5-.2-.9-.5-1.2-.9-.3-.4-.4-.8-.4-1.2 0-.1 0-.1.1-.2 0-.1.1-.1.2-.1h1.1c.1 0 .2 0 .2.1.1 0 .1.1.2.2.1.3.3.5.6.7s.7.3 1.2.3c.6 0 1-.1 1.3-.3.3-.2.4-.5.4-.8 0-.2-.1-.4-.2-.6-.1-.1-.4-.3-.7-.4-.3-.1-.7-.2-1.3-.4-1-.2-1.7-.5-2.1-.9-.5-.4-.7-.9-.7-1.6 0-.5.1-.9.4-1.3.3-.4.6-.7 1.1-.9.5-.2 1.1-.3 1.7-.3.7 0 1.3.1 1.8.4.5.2.9.5 1.1.9.3.4.4.7.4 1.1 0 .1 0 .1-.1.2 0 .1-.1.1-.2.1h-1.2c-.2 0-.3-.1-.4-.2 0-.3-.2-.5-.5-.7-.3-.2-.6-.3-1-.3-.5 0-.8.1-1.1.3-.3.2-.4.4-.4.7 0 .2.1.4.2.6.1.1.3.3.6.4.3.1.7.2 1.2.4.7.2 1.3.3 1.7.6.4.2.7.5 1 .8.2.3.3.7.3 1.2s-.1 1-.4 1.4c-.3.4-.7.7-1.2.9-.5.2-1.1.3-1.8.3-.8-.2-1.4-.3-1.9-.5zM200.4 43.7c-.5-.5-.8-1.2-.9-2.1v-1c0-.9.3-1.6.9-2.1.5-.5 1.3-.7 2.2-.7.6 0 1.2.1 1.6.3.4.2.8.5 1 .8.2.3.3.6.4 1 0 .1 0 .2-.1.2-.1.1-.1.1-.2.1h-1.1c-.1 0-.2 0-.2-.1 0 0-.1-.1-.1-.2-.1-.3-.3-.5-.5-.7-.2-.1-.5-.2-.8-.2-.4 0-.7.1-1 .4-.2.3-.4.7-.4 1.2v.9c0 1.1.5 1.6 1.4 1.6.3 0 .6-.1.8-.2.2-.1.4-.4.5-.7 0-.1.1-.2.1-.2s.1-.1.2-.1h1.1c.1 0 .2 0 .2.1.1.1.1.1.1.2 0 .3-.1.6-.3.9-.2.3-.5.6-1 .9-.4.2-1 .4-1.7.4-.9 0-1.6-.2-2.2-.7zM206.9 44.2c-.1-.1-.1-.1-.1-.2v-5.8c0-.1 0-.2.1-.2.1-.1.1-.1.2-.1h1c.1 0 .2 0 .2.1.1.1.1.1.1.2v.5c.4-.5 1-.8 1.8-.8h.5c.1 0 .2 0 .2.1.1.1.1.1.1.2v.9c0 .1 0 .2-.1.2-.1.1-.1.1-.2.1h-1c-.4 0-.7.1-.9.3-.2.2-.3.5-.3.9V44c0 .1 0 .2-.1.2-.1.1-.1.1-.2.1h-1.1c-.1 0-.1 0-.2-.1zM212 36.8c-.1-.1-.1-.1-.1-.2v-.9c0-.1 0-.2.1-.2.1-.1.1-.1.2-.1h1.1c.1 0 .2 0 .2.1.1.1.1.1.1.2v.9c0 .1 0 .2-.1.2-.1.1-.1.1-.2.1h-1.1c-.1 0-.1 0-.2-.1zm.1 7.4c-.1-.1-.1-.1-.1-.2v-5.8c0-.1 0-.2.1-.2.1-.1.1-.1.2-.1h1c.1 0 .2 0 .2.1.1.1.1.1.1.2V44c0 .1 0 .2-.1.2-.1.1-.1.1-.2.1h-1c-.1 0-.2 0-.2-.1zM215.3 46.6c-.1-.1-.1-.1-.1-.2v-8.1c0-.1 0-.2.1-.2s.1-.1.2-.1h1c.1 0 .2 0 .2.1.1.1.1.1.1.2v.5c.4-.6 1.1-.9 2-.9.8 0 1.5.3 1.9.8.4.5.7 1.2.7 2.1v.8c0 .9-.3 1.6-.7 2.1-.4.5-1.1.8-1.9.8-.8 0-1.4-.3-1.9-.9v2.8c0 .1 0 .2-.1.2-.1.1-.1.1-.2.1h-1.1s-.1-.1-.2-.1zm4.4-5.1v-.4-.4c-.1-1.1-.5-1.6-1.4-1.6-.5 0-.8.2-1 .5-.2.3-.4.7-.4 1.1v1c0 .4.1.8.4 1 .2.3.6.4 1 .4.9 0 1.4-.5 1.4-1.6zM223.9 43.7c-.4-.4-.6-1-.6-1.7v-2.8h-1c-.1 0-.2 0-.2-.1-.1-.1-.1-.1-.1-.2v-.7c0-.1 0-.2.1-.2.1-.1.1-.1.2-.1h1v-2c0-.1 0-.2.1-.2.1-.1.1-.1.2-.1h1c.1 0 .2 0 .2.1.1.1.1.1.1.2v2h1.5c.1 0 .2 0 .2.1.1.1.1.1.1.2v.7c0 .1 0 .2-.1.2-.1.1-.1.1-.2.1H225v2.6c0 .4.1.6.2.8.1.2.3.3.6.3h.9c.1 0 .2 0 .2.1.1.1.1.1.1.2v.8c0 .1 0 .2-.1.2-.1.1-.1.1-.2.1h-1c-.8 0-1.4-.2-1.8-.6zM164.1 58c-.6-.6-.9-1.4-1-2.5v-1.1-1.1c0-1 .4-1.9 1-2.5.6-.6 1.5-.9 2.6-.9.7 0 1.4.1 1.9.4.5.2 1 .6 1.3 1 .3.4.5.9.5 1.5 0 .1 0 .1-.1.2-.1 0-.1.1-.2.1h-1.2c-.1 0-.2 0-.2-.1 0 0-.1-.1-.1-.2-.1-.5-.3-.9-.6-1.1-.3-.2-.7-.3-1.2-.3-1.2 0-1.8.7-1.8 2v2c0 1.3.7 2 1.8 2 .5 0 .9-.1 1.2-.3.3-.2.5-.6.6-1.1 0-.1.1-.2.1-.2s.1-.1.2-.1h1.2c.1 0 .1 0 .2.1s.1.1.1.2c0 .5-.2 1-.5 1.5-.3.4-.7.8-1.3 1-.5.3-1.2.4-1.9.4-1.1 0-2-.3-2.6-.9zM172.3 58.2c-.5-.5-.8-1.2-.8-2v-1c0-.9.3-1.5.9-2 .5-.5 1.3-.7 2.2-.7.9 0 1.7.2 2.2.7.5.5.8 1.2.9 2v1c0 .9-.3 1.5-.8 2s-1.3.7-2.2.7c-1.2 0-1.9-.3-2.4-.7zm3.2-1c.2-.3.4-.7.4-1.2v-.5-.5c0-.5-.1-.9-.4-1.2-.2-.3-.6-.4-1-.4s-.8.1-1 .4c-.2.3-.4.7-.4 1.2v1c0 .5.1.9.4 1.2s.6.4 1 .4c.4.1.8-.1 1-.4zM179 58.7c-.1-.1-.1-.1-.1-.2v-5.8c0-.1 0-.2.1-.2.1-.1.1-.1.2-.1h1c.1 0 .2 0 .2.1.1.1.1.1.1.2v.4c.4-.6 1-.8 1.8-.8.9 0 1.5.4 1.9 1.1.2-.3.5-.6.8-.8.4-.2.7-.3 1.2-.3.7 0 1.2.2 1.6.7.4.5.6 1.1.6 2v3.5c0 .1 0 .2-.1.2-.1.1-.1.1-.2.1h-1c-.1 0-.2 0-.2-.1-.1-.1-.1-.1-.1-.2V55c0-.5-.1-.9-.3-1.1-.2-.2-.5-.3-.9-.3-.3 0-.6.1-.8.4-.2.2-.3.6-.3 1.1v3.4c0 .1 0 .2-.1.2-.1.1-.1.1-.2.1h-1c-.1 0-.2 0-.2-.1-.1-.1-.1-.1-.1-.2V55c0-.5-.1-.9-.3-1.1-.2-.2-.5-.4-.8-.4-.3 0-.6.1-.8.4-.2.2-.3.6-.3 1.1v3.4c0 .1 0 .2-.1.2-.1.1-.1.1-.2.1h-1c-.2.1-.3 0-.4 0zM190.1 58.7c-.1-.1-.1-.1-.1-.2v-5.8c0-.1 0-.2.1-.2.1-.1.1-.1.2-.1h1c.1 0 .2 0 .2.1.1.1.1.1.1.2v.4c.4-.6 1-.8 1.8-.8.9 0 1.5.4 1.9 1.1.2-.3.5-.6.8-.8.4-.2.7-.3 1.2-.3.7 0 1.2.2 1.6.7.4.5.6 1.1.6 2v3.5c0 .1 0 .2-.1.2-.1.1-.1.1-.2.1h-1c-.1 0-.2 0-.2-.1-.1-.1-.1-.1-.1-.2V55c0-.5-.1-.9-.3-1.1-.2-.2-.5-.3-.9-.3-.3 0-.6.1-.8.4-.2.2-.3.6-.3 1.1v3.4c0 .1 0 .2-.1.2-.1.1-.1.1-.2.1h-1c-.1 0-.2 0-.2-.1-.1-.1-.1-.1-.1-.2V55c0-.5-.1-.9-.3-1.1-.2-.2-.5-.4-.8-.4-.3 0-.6.1-.8.4-.2.2-.3.6-.3 1.1v3.4c0 .1 0 .2-.1.2-.1.1-.1.1-.2.1h-1c-.3.1-.3 0-.4 0zM201.7 58.2c-.4-.5-.7-1.2-.7-2v-3.5c0-.1 0-.2.1-.2.1-.1.1-.1.2-.1h1.1c.1 0 .2 0 .2.1.1.1.1.1.1.2v3.4c0 1 .4 1.5 1.3 1.5.4 0 .8-.1 1-.4s.4-.6.4-1.1v-3.4c0-.1 0-.2.1-.2.1-.1.1-.1.2-.1h1.1c.1 0 .2 0 .2.1.1.1.1.1.1.2v5.8c0 .1 0 .2-.1.2-.1.1-.1.1-.2.1h-1c-.1 0-.2 0-.2-.1-.1-.1-.1-.1-.1-.2V58c-.5.6-1.1.9-2 .9-.8 0-1.4-.3-1.8-.7zM208.9 58.7c-.1-.1-.1-.1-.1-.2v-5.8c0-.1 0-.2.1-.2.1-.1.1-.1.2-.1h1c.1 0 .2 0 .2.1.1.1.1.1.1.2v.5c.5-.6 1.2-.9 2.1-.9.8 0 1.4.2 1.8.7.4.5.7 1.2.7 2v3.5c0 .1 0 .2-.1.2-.1.1-.1.1-.2.1h-1.1c-.1 0-.2 0-.2-.1-.1-.1-.1-.1-.1-.2v-3.4c0-.5-.1-.8-.4-1.1-.2-.3-.6-.4-1-.4s-.8.1-1 .4c-.3.3-.4.6-.4 1.1v3.4c0 .1 0 .2-.1.2-.1.1-.1.1-.2.1h-1.1c-.1 0-.2-.1-.2-.1zM216.5 51.3c-.1-.1-.1-.1-.1-.2v-.9c0-.1 0-.2.1-.2.1-.1.1-.1.2-.1h1.1c.1 0 .2 0 .2.1.1.1.1.1.1.2v.8c0 .1 0 .2-.1.2-.1.1-.1.1-.2.1h-1.3zm0 7.4c-.1-.1-.1-.1-.1-.2v-5.8c0-.1 0-.2.1-.2.1-.1.1-.1.2-.1h1c.1 0 .2 0 .2.1.1.1.1.1.1.2v5.8c0 .1 0 .2-.1.2-.1.1-.1.1-.2.1h-1s-.1-.1-.2-.1zM220.9 58.2c-.4-.4-.6-1-.6-1.7v-2.8h-1c-.1 0-.2 0-.2-.1-.1-.1-.1-.1-.1-.2v-.7c0-.1 0-.2.1-.2.1-.1.1-.1.2-.1h1v-2c0-.1 0-.2.1-.2.1-.1.1-.1.2-.1h1c.1 0 .2 0 .2.1.1.1.1.1.1.2v2h1.5c.1 0 .2 0 .2.1.1.1.1.1.1.2v.7c0 .1 0 .2-.1.2-.1.1-.1.1-.2.1H222v2.6c0 .4.1.6.2.8.1.2.3.3.6.3h.9c.1 0 .2 0 .2.1.1.1.1.1.1.2v.8c0 .1 0 .2-.1.2-.1.1-.1.1-.2.1h-1c-.8 0-1.4-.2-1.8-.6zM226 61c-.1 0-.1-.1-.1-.2v-.2l1-2.3-2.4-5.6v-.2c0-.1 0-.1.1-.2 0-.1.1-.1.2-.1h1c.1 0 .3.1.3.2l1.6 4 1.7-4c.1-.2.2-.2.3-.2h1c.1 0 .1 0 .2.1 0 0 .1.1.1.2v.2l-3.5 8c-.1.2-.2.2-.3.2h-1c-.1.2-.2.2-.2.1zM28.7 19C36.2 19 40 24 40 29.9s-3.8 10.9-11.3 10.9c-7.5 0-11.3-4.9-11.3-10.9S21.2 19 28.7 19zm0 6.3c-2.7 0-4.2 1.8-4.2 4.7s1.5 4.7 4.2 4.7 4.2-1.8 4.2-4.7-1.5-4.7-4.2-4.7zM51.4 19.5c5.3 0 9.4 1.8 9.4 7.7 0 5.8-4.1 7.7-9.4 7.7h-2.2v5.5h-6.9V19.5h9.1zm0 5.7h-2.2v4.1h2.2c1.6 0 2.6-.6 2.6-2 0-1.5-1.1-2.1-2.6-2.1zM73.3 19c7.5 0 11.3 4.9 11.3 10.9s-3.8 10.9-11.3 10.9S62 35.9 62 29.9 65.8 19 73.3 19zm0 6.3c-2.7 0-4.2 1.8-4.2 4.7s1.5 4.7 4.2 4.7 4.2-1.8 4.2-4.7-1.6-4.7-4.2-4.7z"/>
  <g>
    <path class="st1" d="M105.9 45.1c-1 0-1.9-.1-2.6-.4v-3.5c.4.2 1 .3 1.5.3 1.1 0 2-.5 2-2V23.8h4.1v16.3c0 3.8-2.4 5-5 5zm3-23.7c-1.3 0-2.4-.7-2.4-2.4 0-1.6 1.2-2.3 2.4-2.3 1.3 0 2.4.7 2.4 2.3 0 1.7-1.2 2.4-2.4 2.4zM119.8 23.4c2 0 3.8.5 5.3 1.2V28c-1.2-.8-3.3-1.5-5-1.5-.9 0-2 .3-2 1.1 0 2.4 8.1 1.2 8.1 6.4 0 3.4-3.1 4.4-6.5 4.4-2.2 0-4.2-.5-5.7-1.3v-3.4c1.5 1 3.7 1.5 5.5 1.5 1.5 0 2.5-.3 2.5-1.1 0-2.3-8.1-1.3-8.1-6.4-.1-3.2 2.9-4.3 5.9-4.3z"/>
  </g>
  <path class="st0" d="M4.7 55.7V4.2H87v-4H.7v59.5H87v-4z"/>
  <path class="st1" d="M148.4.2h-50v4h46v51.5h-46v4h50z"/>
  <path class="st0" d="M93.2 39.9c-1.8 0-3.5-1.1-3.5-3.4s1.6-3.4 3.5-3.4 3.5 1.1 3.5 3.4c-.1 2.3-1.7 3.4-3.5 3.4z"/>
</svg>