<svg xmlns="http://www.w3.org/2000/svg" xmlns:xlink="http://www.w3.org/1999/xlink" viewBox="0 0 66 13" xml:space="preserve">
	<g fill="none" stroke="#FFF" stroke-width="0.2" stroke-miterlimit="10">
		<path d="M4.87,2.87v6.77H2.99V2.87H0.62V1.25h6.62v1.62H4.87z"/>
		<path d="M10.17,6.16v3.48h-1.8v-8.9h1.8V3.9c0.54-0.55,1.15-0.83,1.83-0.83c0.68,0,1.25,0.24,1.71,0.72
			c0.46,0.48,0.7,1.12,0.7,1.92v3.92h-1.8V6.11c0-0.99-0.36-1.49-1.09-1.49c-0.36,0-0.67,0.13-0.94,0.39
			C10.3,5.27,10.17,5.66,10.17,6.16z"/>
		<path d="M21.52,9.64h-1.69V8.86c-0.46,0.58-1.04,0.88-1.72,0.88s-1.26-0.2-1.72-0.59c-0.46-0.4-0.7-0.92-0.7-1.58
			s0.24-1.15,0.72-1.48s1.14-0.49,1.97-0.49h1.34V5.55c0-0.69-0.36-1.03-1.09-1.03c-0.31,0-0.64,0.06-0.99,0.19
			C17.29,4.83,17,4.98,16.76,5.16L15.95,4c0.85-0.62,1.82-0.92,2.9-0.92c0.78,0,1.42,0.2,1.92,0.59c0.5,0.39,0.74,1.01,0.74,1.86
			V9.64z M19.71,7.18V6.87h-1.13c-0.72,0-1.08,0.22-1.08,0.67c0,0.23,0.09,0.41,0.26,0.53c0.17,0.12,0.42,0.19,0.74,0.19
			c0.32,0,0.6-0.1,0.85-0.29C19.59,7.77,19.71,7.51,19.71,7.18z"/>
		<path d="M24.97,6.04v3.6h-1.8V3.18h1.8V3.9c0.54-0.55,1.16-0.83,1.84-0.83c0.68,0,1.25,0.24,1.71,0.72
			c0.46,0.48,0.69,1.12,0.69,1.92v3.92h-1.8V5.99c0-0.99-0.36-1.49-1.09-1.49c-0.36,0-0.67,0.13-0.94,0.39
			C25.1,5.15,24.97,5.54,24.97,6.04z"/>
		<path d="M32.63,9.64h-1.8v-8.9h1.8v4.57l2-2.14h2.27l-2.46,2.62L37,9.64h-2.14l-1.64-2.47l-0.59,0.61V9.64z"/>
		<path d="M42.26,12.18c-0.63,0-1.23-0.26-1.79-0.77l0.82-1.33c0.3,0.3,0.62,0.44,0.94,0.44c0.17,0,0.31-0.08,0.43-0.25
			c0.12-0.16,0.18-0.34,0.18-0.52c0-0.18-0.83-2.38-2.5-6.58h1.92l1.57,4.02l1.57-4.02h1.92l-3,7.61c-0.18,0.44-0.45,0.78-0.82,1.03
			C43.13,12.06,42.71,12.18,42.26,12.18z"/>
		<path d="M54.52,6.41c0,0.94-0.32,1.72-0.97,2.36s-1.46,0.96-2.44,0.96s-1.79-0.32-2.44-0.96s-0.97-1.43-0.97-2.36
			s0.32-1.73,0.97-2.37c0.65-0.64,1.46-0.97,2.44-0.97s1.79,0.32,2.44,0.97C54.2,4.69,54.52,5.48,54.52,6.41z M49.51,6.41
			c0,0.53,0.15,0.96,0.45,1.29c0.3,0.33,0.68,0.5,1.15,0.5c0.47,0,0.85-0.17,1.15-0.5c0.3-0.33,0.45-0.76,0.45-1.29
			s-0.15-0.96-0.45-1.3c-0.3-0.34-0.68-0.5-1.15-0.5c-0.47,0-0.85,0.17-1.15,0.5C49.66,5.45,49.51,5.88,49.51,6.41z"/>
		<path d="M60.02,6.66V3.18h1.81v6.46h-1.81V8.79c-0.45,0.63-1.03,0.95-1.73,0.95s-1.3-0.22-1.78-0.67
			c-0.48-0.44-0.72-1.1-0.72-1.97V3.18h1.81V6.7c0,0.99,0.36,1.49,1.09,1.49c0.36,0,0.67-0.13,0.94-0.39
			C59.88,7.54,60.02,7.16,60.02,6.66z"/>
		<path d="M63.51,1.25h2.12v1.49l-0.36,4.32h-1.42l-0.35-4.32V1.25z M63.81,9.43c-0.2-0.2-0.31-0.45-0.31-0.75
			s0.1-0.55,0.31-0.75c0.2-0.2,0.45-0.31,0.75-0.31s0.55,0.1,0.75,0.31c0.2,0.2,0.31,0.45,0.31,0.75s-0.1,0.55-0.31,0.75
			c-0.2,0.2-0.45,0.31-0.75,0.31S64.02,9.63,63.81,9.43z"/>
	</g>
</svg>
